name rise36.2859peak64.2979fall75.1499.mot
datacolumns 19
datarows 24
range 9.15497600000000 9.19329800000000
endheader
time	ground_force1_vx	ground_force1_vy	ground_force1_vz	ground_force1_px	ground_force1_py	ground_force1_pz	ground_force2_vx	ground_force2_vy	ground_force2_vz	ground_force2_px	ground_force2_py	ground_force2_pz	ground_torque1_x	ground_torque1_y	ground_torque1_z	ground_torque2_x	ground_torque2_y	ground_torque2_z	
9.15497600000000	60.04996400000000	773.12775099999999	53.63461000000000	0.37631600000000	0.00000000000000	0.09447800000000	0.00000000000000	0.00000000000000	0.00000000000000	0.00000000000000	0.00000000000000	0.00000000000000	0.00000000000000	28.19686200000000	0.00000000000000	0.00000000000000	0.00000000000000	0.00000000000000	
9.15663700000000	59.19214500000000	773.52254100000005	53.60576100000000	0.37470800000000	0.00000000000000	0.09456100000000	0.00000000000000	0.00000000000000	0.00000000000000	0.00000000000000	0.00000000000000	0.00000000000000	0.00000000000000	28.16186900000000	0.00000000000000	0.00000000000000	0.00000000000000	0.00000000000000	
9.15830100000000	58.34334900000000	773.82695799999999	53.56968700000000	0.37309400000000	0.00000000000000	0.09464600000000	0.00000000000000	0.00000000000000	0.00000000000000	0.00000000000000	0.00000000000000	0.00000000000000	0.00000000000000	28.12105200000000	0.00000000000000	0.00000000000000	0.00000000000000	0.00000000000000	
9.15996600000000	57.50403300000000	774.04181400000004	53.52658600000000	0.37147600000000	0.00000000000000	0.09473100000000	0.00000000000000	0.00000000000000	0.00000000000000	0.00000000000000	0.00000000000000	0.00000000000000	0.00000000000000	28.07463800000000	0.00000000000000	0.00000000000000	0.00000000000000	0.00000000000000	
9.16163200000000	56.67456300000000	774.16795700000000	53.47661900000000	0.36985500000000	0.00000000000000	0.09481800000000	0.00000000000000	0.00000000000000	0.00000000000000	0.00000000000000	0.00000000000000	0.00000000000000	0.00000000000000	28.02283000000000	0.00000000000000	0.00000000000000	0.00000000000000	0.00000000000000	
9.16329700000000	55.85521900000000	774.20628599999998	53.41991100000000	0.36823000000000	0.00000000000000	0.09490600000000	0.00000000000000	0.00000000000000	0.00000000000000	0.00000000000000	0.00000000000000	0.00000000000000	0.00000000000000	27.96581400000000	0.00000000000000	0.00000000000000	0.00000000000000	0.00000000000000	
9.16496200000000	55.04619800000000	774.15775799999994	53.35655600000000	0.36660300000000	0.00000000000000	0.09499500000000	0.00000000000000	0.00000000000000	0.00000000000000	0.00000000000000	0.00000000000000	0.00000000000000	0.00000000000000	27.90375400000000	0.00000000000000	0.00000000000000	0.00000000000000	0.00000000000000	
9.16663600000000	54.24761800000000	774.02339500000005	53.28661800000000	0.36497300000000	0.00000000000000	0.09508500000000	0.00000000000000	0.00000000000000	0.00000000000000	0.00000000000000	0.00000000000000	0.00000000000000	0.00000000000000	27.83680000000000	0.00000000000000	0.00000000000000	0.00000000000000	0.00000000000000	
9.16830100000000	53.45952600000000	773.80429500000002	53.21013900000000	0.36334100000000	0.00000000000000	0.09517600000000	0.00000000000000	0.00000000000000	0.00000000000000	0.00000000000000	0.00000000000000	0.00000000000000	0.00000000000000	27.76508500000000	0.00000000000000	0.00000000000000	0.00000000000000	0.00000000000000	
9.16996800000000	52.68189700000000	773.50163699999996	53.12713400000000	0.36170800000000	0.00000000000000	0.09526700000000	0.00000000000000	0.00000000000000	0.00000000000000	0.00000000000000	0.00000000000000	0.00000000000000	0.00000000000000	27.68873100000000	0.00000000000000	0.00000000000000	0.00000000000000	0.00000000000000	
9.17163600000000	51.91464800000000	773.11668899999995	53.03760500000000	0.36007400000000	0.00000000000000	0.09536000000000	0.00000000000000	0.00000000000000	0.00000000000000	0.00000000000000	0.00000000000000	0.00000000000000	0.00000000000000	27.60784900000000	0.00000000000000	0.00000000000000	0.00000000000000	0.00000000000000	
9.17329800000000	51.15763400000000	772.65081299999997	52.94153400000000	0.35843900000000	0.00000000000000	0.09545300000000	0.00000000000000	0.00000000000000	0.00000000000000	0.00000000000000	0.00000000000000	0.00000000000000	0.00000000000000	27.52254100000000	0.00000000000000	0.00000000000000	0.00000000000000	0.00000000000000	
9.17497600000000	50.41066200000000	772.10546799999997	52.83889400000000	0.35680300000000	0.00000000000000	0.09554600000000	0.00000000000000	0.00000000000000	0.00000000000000	0.00000000000000	0.00000000000000	0.00000000000000	0.00000000000000	27.43290100000000	0.00000000000000	0.00000000000000	0.00000000000000	0.00000000000000	
9.17663000000000	49.67349000000000	771.48221500000000	52.72965100000000	0.35516800000000	0.00000000000000	0.09564000000000	0.00000000000000	0.00000000000000	0.00000000000000	0.00000000000000	0.00000000000000	0.00000000000000	0.00000000000000	27.33901900000000	0.00000000000000	0.00000000000000	0.00000000000000	0.00000000000000	
9.17829400000000	48.94583500000000	770.78272400000003	52.61376400000000	0.35353300000000	0.00000000000000	0.09573400000000	0.00000000000000	0.00000000000000	0.00000000000000	0.00000000000000	0.00000000000000	0.00000000000000	0.00000000000000	27.24098000000000	0.00000000000000	0.00000000000000	0.00000000000000	0.00000000000000	
9.17997600000000	48.22738100000000	770.00876900000003	52.49119400000000	0.35189900000000	0.00000000000000	0.09582900000000	0.00000000000000	0.00000000000000	0.00000000000000	0.00000000000000	0.00000000000000	0.00000000000000	0.00000000000000	27.13887000000000	0.00000000000000	0.00000000000000	0.00000000000000	0.00000000000000	
9.18163000000000	47.51778100000000	769.16223500000001	52.36190300000000	0.35026600000000	0.00000000000000	0.09592300000000	0.00000000000000	0.00000000000000	0.00000000000000	0.00000000000000	0.00000000000000	0.00000000000000	0.00000000000000	27.03277400000000	0.00000000000000	0.00000000000000	0.00000000000000	0.00000000000000	
9.18329600000000	46.81666400000000	768.24511800000005	52.22585700000000	0.34863400000000	0.00000000000000	0.09601800000000	0.00000000000000	0.00000000000000	0.00000000000000	0.00000000000000	0.00000000000000	0.00000000000000	0.00000000000000	26.92277600000000	0.00000000000000	0.00000000000000	0.00000000000000	0.00000000000000	
9.18496900000000	46.12364000000000	767.25952099999995	52.08303300000000	0.34700500000000	0.00000000000000	0.09611200000000	0.00000000000000	0.00000000000000	0.00000000000000	0.00000000000000	0.00000000000000	0.00000000000000	0.00000000000000	26.80896700000000	0.00000000000000	0.00000000000000	0.00000000000000	0.00000000000000	
9.18663500000000	45.43830600000000	766.20765900000004	51.93341800000000	0.34537800000000	0.00000000000000	0.09620700000000	0.00000000000000	0.00000000000000	0.00000000000000	0.00000000000000	0.00000000000000	0.00000000000000	0.00000000000000	26.69143900000000	0.00000000000000	0.00000000000000	0.00000000000000	0.00000000000000	
9.18829500000000	44.76025000000000	765.09185100000002	51.77701500000000	0.34375500000000	0.00000000000000	0.09630000000000	0.00000000000000	0.00000000000000	0.00000000000000	0.00000000000000	0.00000000000000	0.00000000000000	0.00000000000000	26.57029300000000	0.00000000000000	0.00000000000000	0.00000000000000	0.00000000000000	
9.18997800000000	44.08905700000000	763.91452300000003	51.61384300000000	0.34213400000000	0.00000000000000	0.09639400000000	0.00000000000000	0.00000000000000	0.00000000000000	0.00000000000000	0.00000000000000	0.00000000000000	0.00000000000000	26.44563300000000	0.00000000000000	0.00000000000000	0.00000000000000	0.00000000000000	
9.19163000000000	43.42431000000000	762.67819999999995	51.44393800000000	0.34051800000000	0.00000000000000	0.09648700000000	0.00000000000000	0.00000000000000	0.00000000000000	0.00000000000000	0.00000000000000	0.00000000000000	0.00000000000000	26.31757200000000	0.00000000000000	0.00000000000000	0.00000000000000	0.00000000000000	
9.19329800000000	42.76560100000000	761.38550699999996	51.26736100000000	0.33890600000000	0.00000000000000	0.09657900000000	0.00000000000000	0.00000000000000	0.00000000000000	0.00000000000000	0.00000000000000	0.00000000000000	0.00000000000000	26.18623300000000	0.00000000000000	0.00000000000000	0.00000000000000	0.00000000000000	
